<?xml version="1.0" encoding="UTF-8" standalone="no"?>
<svg
   xmlns:dc="http://purl.org/dc/elements/1.1/"
   xmlns:cc="http://creativecommons.org/ns#"
   xmlns:rdf="http://www.w3.org/1999/02/22-rdf-syntax-ns#"
   xmlns:svg="http://www.w3.org/2000/svg"
   xmlns="http://www.w3.org/2000/svg"
   id="svg1486"
   version="1.1"
   viewBox="0 0 28.279717 28.345677"
   height="28.345676mm"
   width="28.279716mm">
  <defs
     id="defs1480" />
  <metadata
     id="metadata1483">
    <rdf:RDF>
      <cc:Work
         rdf:about="">
        <dc:format>image/svg+xml</dc:format>
        <dc:type
           rdf:resource="http://purl.org/dc/dcmitype/StillImage" />
        <dc:title></dc:title>
      </cc:Work>
    </rdf:RDF>
  </metadata>
  <g
     transform="translate(-37.735257,-180.7033)"
     id="layer1">
    <g
       transform="matrix(0.6320405,0,0,0.6320405,253.69234,-23.239157)"
       id="g2752"
       style="enable-background:new">
      <path
         style="opacity:1;vector-effect:none;fill:#bf360c;fill-opacity:1;fill-rule:nonzero;stroke:none;stroke-width:1.02612042;stroke-linecap:round;stroke-linejoin:miter;stroke-miterlimit:4;stroke-dasharray:none;stroke-dashoffset:0;stroke-opacity:1;paint-order:stroke markers fill"
         d="m -530.9043,1261.9219 a 74.244193,73.139338 0 0 0 -38.51953,10.6914 77.11674,77.11674 0 0 1 36.23633,65.2129 77.11674,77.11674 0 0 1 -24.15039,55.9902 85.393965,85.393965 0 0 0 15.8457,1.541 85.393965,85.393965 0 0 0 84.00196,-70.7031 74.244193,73.139338 0 0 0 -0.63672,-3.7246 97.934324,99.809325 0 0 0 -34.17578,-48.2383 74.244193,73.139338 0 0 0 -38.60157,-10.7695 z"
         transform="matrix(0.26458333,0,0,0.26458333,-176.20305,-1.6673372)"
         id="ellipse2723" />
      <path
         style="opacity:1;vector-effect:none;fill:#7cb342;fill-opacity:1;fill-rule:nonzero;stroke:none;stroke-width:0.20618457;stroke-linecap:round;stroke-linejoin:miter;stroke-miterlimit:4;stroke-dasharray:none;stroke-dashoffset:0;stroke-opacity:1;paint-order:stroke markers fill"
         d="m -338.62776,336.48355 a 20.196121,19.541311 0 0 0 -1.38131,0.0476 22.59382,22.59382 0 0 0 -1.67328,8.49661 22.59382,22.59382 0 0 0 19.4722,22.35007 20.196121,19.541311 0 0 0 3.77858,-11.35279 20.196121,19.541311 0 0 0 -20.19619,-19.54144 z"
         id="ellipse2730" />
      <path
         style="opacity:1;vector-effect:none;fill:#ffab91;fill-opacity:1;fill-rule:nonzero;stroke:none;stroke-width:0.23449574;stroke-linecap:round;stroke-linejoin:miter;stroke-miterlimit:4;stroke-dasharray:none;stroke-dashoffset:0;stroke-opacity:1;paint-order:stroke markers fill"
         d="m -333.25083,327.42006 c -2.99092,2.41287 -5.31698,5.54874 -6.75824,9.11109 0.46191,-0.0378 0.92503,-0.0602 1.38854,-0.0672 4.57844,0.007 9.01864,1.51862 12.59252,4.28757 -3.76826,-3.55432 -6.29993,-8.22713 -7.22282,-13.33148 z"
         id="circle2717" />
      <path
         style="opacity:1;vector-effect:none;fill:#0277bd;fill-opacity:1;fill-rule:nonzero;stroke:none;stroke-width:0.23449574;stroke-linecap:round;stroke-linejoin:miter;stroke-miterlimit:4;stroke-dasharray:none;stroke-dashoffset:0;stroke-opacity:1;paint-order:stroke markers fill"
         d="m -319.5328,322.67309 c -9.981,0.004 -18.67471,7.00754 -20.47627,13.85806 4.90255,-5.51617 10.7013,-6.40601 18.00407,-6.41768 11.38814,0.0116 21.43399,7.59976 24.75766,18.70064 0.19601,-1.17257 0.29917,-2.35879 0.30851,-3.54759 -2.1e-4,-12.47813 -10.11584,-22.59351 -22.59397,-22.59343 z"
         id="circle2698" />
    </g>
  </g>
</svg>
