<?xml version="1.0" encoding="UTF-8" standalone="no"?>
<svg
   xmlns:dc="http://purl.org/dc/elements/1.1/"
   xmlns:cc="http://creativecommons.org/ns#"
   xmlns:rdf="http://www.w3.org/1999/02/22-rdf-syntax-ns#"
   xmlns:svg="http://www.w3.org/2000/svg"
   xmlns="http://www.w3.org/2000/svg"
   xmlns:sodipodi="http://sodipodi.sourceforge.net/DTD/sodipodi-0.dtd"
   xmlns:inkscape="http://www.inkscape.org/namespaces/inkscape"
   id="svg1486"
   version="1.1"
   viewBox="0 0 29.256402 29.139443"
   height="29.139442mm"
   width="29.256401mm"
   sodipodi:docname="freecad.svg"
   inkscape:version="0.92.4 (5da689c313, 2019-01-14)">
  <sodipodi:namedview
     pagecolor="#ffffff"
     bordercolor="#666666"
     borderopacity="1"
     objecttolerance="10"
     gridtolerance="10"
     guidetolerance="10"
     inkscape:pageopacity="0"
     inkscape:pageshadow="2"
     inkscape:window-width="1920"
     inkscape:window-height="1053"
     id="namedview12"
     showgrid="false"
     inkscape:zoom="6.0609157"
     inkscape:cx="67.893476"
     inkscape:cy="25.338592"
     inkscape:window-x="0"
     inkscape:window-y="27"
     inkscape:window-maximized="1"
     inkscape:current-layer="g858" />
  <defs
     id="defs1480" />
  <metadata
     id="metadata1483">
    <rdf:RDF>
      <cc:Work
         rdf:about="">
        <dc:format>image/svg+xml</dc:format>
        <dc:type
           rdf:resource="http://purl.org/dc/dcmitype/StillImage" />
        <dc:title />
      </cc:Work>
    </rdf:RDF>
  </metadata>
  <g
     transform="translate(-77.724616,-190.32152)"
     id="layer1">
    <g
       id="g858"
       transform="matrix(1.0406944,0,0,1.0406944,75.643227,188.24013)"
       style="enable-background:new">
      <rect
         style="fill:#0277bd;fill-opacity:1"
         width="28"
         height="28"
         x="-30"
         y="-30"
         rx="14"
         ry="14"
         transform="matrix(0,-1,-1,0,0,0)"
         id="rect2" />
      <path
         style="fill:#ff7043;fill-opacity:1"
         d="m 10,7 h 12 v 4 h -8.9996 v 4 h 5 v 3 h -4.9996 v 7 h -3 z"
         id="path6-7" />
      <path
         style="opacity:0.1;fill:#ffffff"
         d="M 3.4004,2 C 2.6248,2 2,2.6248 2,3.4004 v 1 C 2,3.6248 2.6248,3 3.4004,3 h 25.2 c 0.775,0 1.4,0.6248 1.4,1.4004 v -1 C 30.0004,2.6248 29.3754,2 28.6004,2 Z"
         id="path8-9" />
      <circle
         style="fill:#01579b;fill-opacity:1;fill-rule:evenodd;stroke-width:0.79775548"
         cx="23.730341"
         cy="22.561804"
         r="6.3820438"
         id="circle12" />
      <path
         style="fill:#f2f2f2;fill-opacity:1"
         d="m 22.730341,18.460681 -0.0882,1.0536 a 3.1429,3.1429 0 0 0 -0.91852,0.53126 l -0.95759,-0.4509 -1,1.7321 0.86941,0.6038 a 3.1429,3.1429 0 0 0 -0.048,0.53013 3.1429,3.1429 0 0 0 0.0457,0.53237 l -0.86719,0.60156 1,1.7321 0.95536,-0.44978 a 3.1429,3.1429 0 0 0 0.92075,0.5279 l 0.0882,1.0558 h 2 l 0.0882,-1.0536 a 3.1429,3.1429 0 0 0 0.91854,-0.53126 l 0.95758,0.4509 1,-1.7321 -0.86942,-0.6038 a 3.1429,3.1429 0 0 0 0.048,-0.53013 3.1429,3.1429 0 0 0 -0.0457,-0.53237 l 0.86719,-0.60156 -1,-1.7321 -0.95536,0.44978 a 3.1429,3.1429 0 0 0 -0.921,-0.528 l -0.088,-1.056 h -2 z m 1,2.8572 a 1.1429,1.1429 0 0 1 1.143,1.143 1.1429,1.1429 0 0 1 -1.143,1.143 1.1429,1.1429 0 0 1 -1.143,-1.143 1.1429,1.1429 0 0 1 1.143,-1.143 z"
         id="path14-3" />
    </g>
  </g>
</svg>
