<?xml version="1.0" encoding="UTF-8" standalone="no"?>
<svg
   xmlns:dc="http://purl.org/dc/elements/1.1/"
   xmlns:cc="http://creativecommons.org/ns#"
   xmlns:rdf="http://www.w3.org/1999/02/22-rdf-syntax-ns#"
   xmlns:svg="http://www.w3.org/2000/svg"
   xmlns="http://www.w3.org/2000/svg"
   id="svg1486"
   version="1.1"
   viewBox="0 0 25.212023 25.212391"
   height="25.212391mm"
   width="25.212023mm">
  <defs
     id="defs1480" />
  <metadata
     id="metadata1483">
    <rdf:RDF>
      <cc:Work
         rdf:about="">
        <dc:format>image/svg+xml</dc:format>
        <dc:type
           rdf:resource="http://purl.org/dc/dcmitype/StillImage" />
        <dc:title></dc:title>
      </cc:Work>
    </rdf:RDF>
  </metadata>
  <g
     transform="translate(-50.371518,-135.23762)"
     id="layer1">
    <g
       transform="translate(78.578295,-305.59761)"
       id="g7316"
       style="enable-background:new">
      <path
         style="fill:#4d4d4d;fill-opacity:1;stroke-width:0.96969974"
         d="m -15.600692,440.83541 c -7.003352,0 -12.606085,5.60274 -12.606085,12.60613 0,7.00335 5.602733,12.60608 12.606085,12.60608 1.120576,0 2.101039,-0.98046 2.101039,-2.10104 0,-0.5603 -0.140004,-0.98046 -0.56027,-1.40065 -0.280007,-0.4202 -0.56027,-0.84039 -0.56027,-1.40062 0,-1.12061 0.980573,-2.10108 2.101039,-2.10108 h 2.5212316 c 3.9214477,0 7.003169,-3.08168 7.003169,-7.00317 0,-6.1634 -5.6029163,-11.20583 -12.6060856,-11.20583 z"
         id="path2" />
      <path
         style="fill:#0277bd;fill-opacity:1;stroke-width:0.96969974"
         d="m -24.32799,453.44154 c -1.034375,0 -1.939412,-0.90475 -1.939412,-1.93942 0,-1.03466 0.905037,-1.93941 1.939412,-1.93941 1.034375,0 1.939411,0.90475 1.939411,1.93941 0,1.03467 -0.905036,1.93942 -1.939411,1.93942 z"
         id="path14" />
      <path
         style="fill:#ffccbc;fill-opacity:1;stroke-width:0.96969974"
         d="m -19.479479,447.62334 c -1.034412,0 -1.939412,-0.90508 -1.939412,-1.93941 0,-1.03434 0.905037,-1.93942 1.939412,-1.93942 1.034338,0 1.939375,0.90508 1.939375,1.93942 0,1.03433 -0.905037,1.93941 -1.939375,1.93941 z"
         id="path16" />
      <path
         style="fill:#ff7043;fill-opacity:1;stroke-width:0.96969974"
         d="m -12.691593,447.62334 c -1.034375,0 -1.939412,-0.90508 -1.939412,-1.93941 0,-1.03434 0.905074,-1.93942 1.939412,-1.93942 1.034339,0 1.939412,0.90508 1.939412,1.93942 0,1.03433 -0.905073,1.93941 -1.939412,1.93941 z"
         id="path18" />
      <path
         style="fill:#bf360c;fill-opacity:1;stroke-width:0.96969974"
         d="m -7.8430814,453.44154 c -1.0344116,0 -1.9394119,-0.90508 -1.9394119,-1.93942 0,-1.03433 0.9050369,-1.93941 1.9394119,-1.93941 1.0343383,0 1.9393752,0.90508 1.9393752,1.93941 0,1.03434 -0.9050369,1.93942 -1.9393752,1.93942 z"
         id="path20" />
    </g>
  </g>
</svg>
